<?xml version="1.0" standalone="no"?>
<!DOCTYPE svg PUBLIC "-//W3C//DTD SVG 20010904//EN"
 "http://www.w3.org/TR/2001/REC-SVG-20010904/DTD/svg10.dtd">
<svg version="1.0" xmlns="http://www.w3.org/2000/svg"
 width="506.000000pt" height="506.000000pt" viewBox="0 0 506.000000 506.000000"
 preserveAspectRatio="xMidYMid meet">
<metadata>
Created by potrace 1.11, written by Peter Selinger 2001-2013
</metadata>
<g transform="translate(0.000000,506.000000) scale(0.100000,-0.100000)"
fill="#000000" stroke="none">
<path d="M2330 5049 c-874 -75 -1636 -579 -2039 -1349 -123 -236 -226 -546
-257 -775 -3 -27 -8 -59 -10 -70 -17 -89 -25 -433 -13 -530 4 -27 10 -81 13
-120 4 -38 11 -86 16 -105 5 -19 11 -49 13 -65 25 -170 123 -452 234 -667 51
-100 188 -317 237 -376 214 -258 358 -393 576 -544 318 -221 673 -358 1090
-422 81 -13 215 -20 355 -19 189 1 243 5 448 38 17 3 79 17 137 31 599 145
1126 509 1482 1024 173 250 303 539 373 835 13 55 26 114 28 130 3 17 8 46 11
65 13 78 16 99 23 185 38 473 -50 931 -260 1350 -51 102 -168 299 -187 315 -3
3 -17 21 -30 40 -47 70 -165 207 -254 296 -302 301 -675 522 -1079 639 -65 19
-129 37 -143 39 -209 39 -233 43 -331 52 -96 9 -344 10 -433 3z"/>
</g>
</svg>
